<svg width="113" height="90" viewBox="0 0 113 90" fill="none" xmlns="http://www.w3.org/2000/svg">
<path d="M1 24C1 10.7452 11.7452 0 25 0H89C102.255 0 113 10.7452 113 24V24H1V24Z" fill="#EA9648"/>
<path d="M113 67C113 79.7025 102.703 90 90 90L24 90C11.2975 90 0.999999 79.7026 0.999998 67V67L113 67V67Z" fill="#EA9648"/>
<path d="M0.3 62V29.8H8.764L16.86 50.96L24.91 29.8H33.374V62H28.498V35.688H27.946L19.252 57.262H14.468L5.728 35.688H5.176V62H0.3ZM55.3315 62H37.9895V29.8H55.3315V34.354H42.8655V44.152H52.9855V48.292H42.8655V57.446H55.3315V62ZM83.5201 62H77.0801L64.3381 35.964V61.954H59.4621V29.8H66.3161L78.5981 55.376V29.8H83.5201V62ZM106.89 62V59.01C105.94 59.9607 104.851 60.7427 103.624 61.356C102.428 61.9387 101.125 62.23 99.7143 62.23C97.4143 62.23 95.3596 61.7087 93.5503 60.666C91.7409 59.5927 90.2996 58.182 89.2263 56.434C88.1836 54.6553 87.6623 52.6773 87.6623 50.5V29.8H92.5383L92.5843 50.5C92.5843 51.7573 92.8909 52.892 93.5043 53.904C94.1483 54.916 95.0069 55.7133 96.0803 56.296C97.1843 56.8787 98.3956 57.17 99.7143 57.17C101.094 57.17 102.321 56.8787 103.394 56.296C104.468 55.7133 105.311 54.916 105.924 53.904C106.568 52.892 106.89 51.7573 106.89 50.5V29.8H111.766V49.81C111.766 49.994 111.766 50.1627 111.766 50.316V62H106.89Z" fill="#FFCC04"/>
</svg>
