<svg width="102" height="166" viewBox="0 0 102 166" fill="none" xmlns="http://www.w3.org/2000/svg">
<rect x="27" width="16" height="93" rx="8" fill="#F8C603"/>
<rect x="43" y="22" width="16" height="102" rx="8" fill="#FFCC04"/>
<rect x="74.8506" y="18.1234" width="16.7293" height="101.073" rx="8" transform="rotate(20.7073 74.8506 18.1234)" fill="#F2C203"/>
<rect x="57" y="16" width="16" height="101" rx="8" fill="#FFCC04"/>
<rect x="83.0352" y="36.9439" width="16.7293" height="93.6073" rx="8" transform="rotate(22.3256 83.0352 36.9439)" fill="#FAC702"/>
<rect x="6.3501" y="21.3814" width="16.7293" height="101.073" rx="8" transform="rotate(-11.2299 6.3501 21.3814)" fill="#FFCC04"/>
<rect x="29.353" y="35.5781" width="16.7293" height="101.073" rx="8" transform="rotate(-19.5741 29.353 35.5781)" fill="#F1C103"/>
<path d="M0.773926 61.2745L14.3679 61.4602C29.4999 93.5 77.9999 91.5 89.2628 62.0751L101.061 62.272L91.1844 165.102C68.0722 158.538 31.0914 160.653 14.502 164.554L0.773926 61.2745Z" fill="#FF2121"/>
<path d="M52.5 122C58.8513 122 64 117.075 64 111C64 104.925 58.8513 100 52.5 100C46.1487 100 41 104.925 41 111C41 117.075 46.1487 122 52.5 122Z" stroke="#FFCC04" stroke-width="6"/>
<path d="M35 150C35.0423 143.663 35 149.556 35 149.556C35.4487 124.851 70.3071 124.667 69.998 149.889" stroke="#FFCC04" stroke-width="6"/>
</svg>
